<?xml version="1.0" encoding="UTF-8"?>
<svg width="55px" height="60px" version="1.1" viewBox="0 0 752 752" xmlns="http://www.w3.org/2000/svg">
 <path d="m538.79 382.56v-124.95c-0.007813-7.8477-3.1289-15.371-8.6758-20.918-5.5508-5.5508-13.074-8.6719-20.922-8.6797h-53.863l-11.426-34.281c-0.98047-2.9492-2.8633-5.5117-5.3867-7.3281-2.5195-1.8164-5.5469-2.793-8.6523-2.7891h-107.73c-3.1055-0.003906-6.1367 0.97266-8.6562 2.7891-2.5195 1.8164-4.4023 4.3789-5.3828 7.3281l-11.426 34.281h-53.863c-7.8477 0.007813-15.371 3.1289-20.922 8.6797-5.5469 5.5469-8.6719 13.07-8.6797 20.918v124.95c-28.578 16.75-44.398 37.926-44.398 60.039 0 50.242 78.992 90.297 183.71 95.555l-25.02 16.684c-1.6523 1.082-2.8047 2.7773-3.2031 4.7109-0.39453 1.9336-0.003906 3.9453 1.0938 5.5898 1.0938 1.6406 2.8008 2.7773 4.7383 3.1562 1.9375 0.37891 3.9453-0.03125 5.5781-1.1406l44.398-29.598v-0.003907c2.0586-1.3711 3.2969-3.6836 3.2969-6.1562 0-2.4727-1.2383-4.7852-3.2969-6.1562l-44.398-29.598c-3.3984-2.2227-7.9531-1.2891-10.203 2.0898-2.2539 3.3789-1.3633 7.9375 1.9961 10.223l22.895 15.262c-92.703-5.4844-166.79-40.16-166.79-80.617 0-14.832 10.469-29.688 29.598-42.633v35.234c0.007813 7.8477 3.1328 15.371 8.6797 20.918 5.5508 5.5508 13.074 8.6719 20.922 8.6797h266.39c7.8477-0.007813 15.371-3.1289 20.922-8.6797 5.5469-5.5469 8.668-13.07 8.6758-20.918v-35.234c19.129 12.945 29.598 27.801 29.598 42.633 0 34.754-55.188 66.621-134.2 77.5l0.003906 0.003906c-3.8555 0.52344-6.6445 3.9492-6.3828 7.8281 0.26562 3.8828 3.4883 6.8984 7.3789 6.9023 0.33984 0 0.68359-0.023437 1.0195-0.070312 87.918-12.102 146.98-49.141 146.98-92.164 0-22.113-15.816-43.289-44.398-60.039zm-199.79-169.35h73.996c4.0859 0 7.3984 3.3125 7.3984 7.4023 0 4.0859-3.3125 7.3984-7.3984 7.3984h-73.996c-4.0859 0-7.4023-3.3125-7.4023-7.3984 0-4.0898 3.3164-7.4023 7.4023-7.4023zm-73.996 88.797c-5.8906 0-11.535-2.3398-15.699-6.5-4.1641-4.1641-6.5-9.8125-6.5-15.699 0-5.8867 2.3359-11.535 6.5-15.695 4.1641-4.1641 9.8086-6.5039 15.699-6.5039 5.8867 0 11.531 2.3398 15.695 6.5039 4.1641 4.1602 6.5 9.8086 6.5 15.695-0.003906 5.8867-2.3438 11.527-6.5078 15.691-4.1602 4.1602-9.8047 6.5-15.688 6.5078zm110.99 133.2c-23.551 0-46.133-9.3555-62.789-26.008-16.652-16.652-26.008-39.238-26.008-62.789 0-23.551 9.3555-46.137 26.008-62.789 16.656-16.652 39.238-26.008 62.789-26.008s46.137 9.3555 62.789 26.008c16.652 16.652 26.008 39.238 26.008 62.789-0.027344 23.543-9.3906 46.113-26.035 62.758-16.648 16.648-39.219 26.012-62.762 26.039zm44.398-88.797c0 11.777-4.6758 23.066-13.004 31.395-8.3242 8.3281-19.617 13.004-31.395 13.004-11.773 0-23.066-4.6758-31.395-13.004-8.3242-8.3281-13.004-19.617-13.004-31.395 0-11.773 4.6797-23.066 13.004-31.395 8.3281-8.3242 19.621-13.004 31.395-13.004 11.773 0.011719 23.059 4.6953 31.383 13.02 8.3203 8.3242 13.004 19.609 13.016 31.379zm-147.99-66.598c0 2.9922-1.8047 5.6914-4.5703 6.8359-2.7617 1.1445-5.9453 0.51172-8.0625-1.6016-2.1172-2.1172-2.75-5.3008-1.6055-8.0664 1.1484-2.7656 3.8438-4.5664 6.8398-4.5664 4.082 0.003906 7.3906 3.3164 7.3984 7.3984zm103.6-7.3984h-0.003906c-19.625 0-38.445 7.7969-52.324 21.672-13.875 13.879-21.672 32.699-21.672 52.324s7.7969 38.445 21.672 52.324c13.879 13.879 32.699 21.672 52.324 21.672s38.449-7.793 52.324-21.672c13.879-13.879 21.676-32.699 21.676-52.324-0.023438-19.617-7.8281-38.426-21.699-52.301-13.871-13.871-32.68-21.676-52.301-21.695zm0 133.2h-0.003906c-15.699 0-30.758-6.2383-41.859-17.34-11.102-11.102-17.336-26.16-17.336-41.859 0-15.699 6.2344-30.758 17.336-41.859 11.102-11.102 26.16-17.34 41.859-17.34 15.703 0 30.758 6.2383 41.859 17.34 11.102 11.102 17.34 26.16 17.34 41.859-0.019531 15.695-6.2617 30.742-17.359 41.84-11.098 11.098-26.145 17.34-41.84 17.359z"/>
</svg>
