<?xml version="1.0" encoding="UTF-8"?>
<svg width="55px" height="60px" version="1.1" viewBox="0 0 752 752" xmlns="http://www.w3.org/2000/svg">
 <g>
  <path d="m376 435.2c45.137 0 81.398-36.258 81.398-81.398v-103.59c0-45.137-36.258-81.398-81.398-81.398-45.137 0-81.395 36.258-81.395 81.398v103.6c0 45.137 36.258 81.395 81.395 81.395zm-36.996-240.49v18.5c0 4.4414 2.9609 7.3984 7.3984 7.3984 4.4414 0 7.3984-2.9609 7.3984-7.3984v-25.898c4.4414-1.4805 9.6211-2.9609 14.801-3.6992v29.598c0 4.4414 2.9609 7.3984 7.3984 7.3984 4.4414 0 7.3984-2.9609 7.3984-7.3984l0.003906-28.859c5.1797 0.73828 10.359 1.4805 14.801 3.6992l-0.003906 25.16c0 4.4414 2.9609 7.3984 7.3984 7.3984 4.4414 0 7.3984-2.9609 7.3984-7.3984l0.003906-18.5c14.059 9.6211 24.418 23.68 28.117 40.699h-42.918c-4.4414 0-7.3984 2.9609-7.3984 7.3984 0 4.4414 2.9609 7.3984 7.3984 7.3984h44.398v14.801h-44.398c-4.4414 0-7.3984 2.9609-7.3984 7.3984 0 4.4414 2.9609 7.3984 7.3984 7.3984h44.398v14.801h-44.398c-4.4414 0-7.3984 2.9609-7.3984 7.3984 0 4.4414 2.9609 7.3984 7.3984 7.3984h44.398v14.801h-44.398c-4.4414 0-7.3984 2.9609-7.3984 7.3984 0 4.4414 2.9609 7.3984 7.3984 7.3984h44.398v14.801h-44.398c-4.4414 0-7.3984 2.9609-7.3984 7.3984 0 4.4414 2.9609 7.3984 7.3984 7.3984h42.918c-3.6992 16.281-14.059 31.078-28.117 40.699v-18.492c0-4.4414-2.9609-7.3984-7.3984-7.3984-4.4414 0-7.3984 2.9609-7.3984 7.3984v25.898c-4.4414 1.4805-9.6211 2.9609-14.801 3.6992v-29.598c0-4.4414-2.9609-7.3984-7.3984-7.3984-4.4414 0-7.3984 2.9609-7.3984 7.3984v28.859c-5.1797-0.73828-10.359-1.4805-14.801-3.6992l-0.003907-25.16c0-4.4414-2.9609-7.3984-7.3984-7.3984-4.4414 0-7.3984 2.9609-7.3984 7.3984v18.5c-14.059-9.6211-24.418-23.68-28.117-40.699h42.914c4.4414 0 7.3984-2.9609 7.3984-7.3984 0-4.4414-2.9609-7.3984-7.3984-7.3984h-44.398v-14.801h44.398c4.4414 0 7.3984-2.9609 7.3984-7.3984 0-4.4414-2.9609-7.3984-7.3984-7.3984h-44.398v-14.801h44.398c4.4414 0 7.3984-2.9609 7.3984-7.3984 0-4.4414-2.9609-7.3984-7.3984-7.3984h-44.398v-14.801h44.398c4.4414 0 7.3984-2.9609 7.3984-7.3984 0-4.4414-2.9609-7.3984-7.3984-7.3984h-44.398v-14.801h44.398c4.4414 0 7.3984-2.9609 7.3984-7.3984 0-4.4414-2.9609-7.3984-7.3984-7.3984h-42.918c3.6992-16.285 14.062-31.086 28.121-40.707z"/>
  <path d="m501.8 294.61h-14.801v-14.801c0-4.4414-2.9609-7.3984-7.3984-7.3984-4.4414 0-7.3984 2.9609-7.3984 7.3984v73.996c0 53.277-42.918 96.195-96.195 96.195s-96.195-42.918-96.195-96.195l-0.003906-73.996c0-4.4414-2.9609-7.3984-7.3984-7.3984-4.4414 0-7.3984 2.9609-7.3984 7.3984v14.801h-14.801v14.801h14.801v44.398c0 52.539 37 98.418 88.797 108.78l-0.003907 91.012h-37c-20.719 0-37 16.281-37 37v7.3984h192.39v-7.3984c0-20.719-16.281-37-37-37h-37l0.007813-91.016c51.797-10.359 88.797-56.238 88.797-108.78v-44.398h14.801zm-45.879 288.59h-159.83c2.9609-8.8789 11.84-14.801 20.719-14.801h118.39c9.6211 0.003906 17.758 5.9219 20.719 14.801zm-72.516-29.598h-14.801v-89.535c2.2188 0 5.1797 0.73828 7.3984 0.73828s5.1797 0 7.3984-0.73828z"/>
 </g>
</svg>
