<?xml version="1.0" encoding="UTF-8"?>
<svg width="55px" height="55px" version="1.1" fill="#930" viewBox="0 0 752 752" xmlns="http://www.w3.org/2000/svg">
 <path d="m319.17 499.13c1.8945 1.4219 43.098 36.938 97.559 57.305 4.7344 1.8945 10.418-0.47266 12.312-5.6836 1.8945-4.7344-0.47266-10.418-5.6836-12.312-51.148-18.945-91.402-53.516-91.875-53.516-60.145-53.043-89.508-96.137-103.24-123.13-14.68-28.887-15.629-45.938-15.629-45.938v-1.8945c-13.734-60.145 27.469-95.664 28.887-97.086 12.312-10.418 24.152-4.7344 26.992-2.8398l53.992 53.043c5.6836 5.6836 8.0508 11.367 8.0508 17.051-0.47266 9.4727-8.0508 16.574-8.0508 16.574l-25.574 25.574c-2.8398 2.8398-3.7891 7.1055-1.8945 10.418 23.207 51.621 66.773 89.98 99.453 112.71 4.2617 2.8398 8.5234 5.6836 12.785 8.5234 10.891 6.6289 17.523 10.418 17.996 10.418 3.7891 1.8945 8.0508 1.4219 10.891-1.4219l31.73-31.258c12.785-7.5781 20.363-0.94531 21.785 0.47266l0.47266 0.47266 54.934 53.516c5.2109 6.6289 7.5781 12.785 6.6289 18.469-0.94531 7.5781-7.1055 12.785-7.1055 12.785-0.47266 0.47266-0.94531 0.94531-1.4219 1.4219-30.781 36.465-74.824 27.469-77.195 26.992-5.2109-0.94531-9.9453 1.8945-11.367 7.1055-0.94531 5.2109 1.8945 9.9453 7.1055 11.367 0.94531 0 8.0508 1.8945 18.469 1.8945 19.891 0 51.621-5.2109 76.719-34.098 3.3164-2.3672 11.84-10.891 13.734-24.625 1.4219-11.367-2.3672-22.258-10.891-33.625-0.47266-0.47266-0.47266-0.47266-0.94531-0.94531l-55.402-53.984c-6.6289-7.1055-24.625-17.051-46.41-3.3164-0.47266 0.47266-0.94531 0.94531-1.4219 1.4219l-27.469 26.992c-2.8398-1.4219-6.1562-3.7891-10.418-6.1562s-8.0508-5.2109-12.312-8.0508c-29.836-20.836-68.668-54.461-90.926-98.977l20.363-20.363c2.3672-1.8945 13.734-13.262 14.207-29.363 0.47266-10.891-4.2617-21.312-13.734-31.258l-54.461-54.461c-0.47266-0.47266-0.94531-0.47266-0.94531-0.94531-8.9961-6.1562-30.781-13.734-50.672 3.7891-1.8945 1.8945-51.148 44.043-35.52 115.08 0.94531 9.4688 9.4688 80.504 125.5 181.85z"/>
</svg>
