<?xml version="1.0" encoding="UTF-8"?>
<svg width="60px" height="60px" version="1.1" viewBox="0 0 752 752" xmlns="http://www.w3.org/2000/svg">
 <path d="m186.76 252.43c-3.1836-0.074219-6.2656 1.1445-8.543 3.3711-2.2773 2.2266-3.5625 5.2812-3.5625 8.4648 0 3.1875 1.2852 6.2422 3.5625 8.4688s5.3594 3.4453 8.543 3.3711h127.86l20.535 35.496h-148.57c-6.5391 0.027344-11.816 5.3477-11.793 11.887v164.2c-0.023438 6.5391 5.2539 11.859 11.793 11.887h231.7c6.5391-0.027344 11.82-5.3477 11.793-11.887v-33.367h37.207l49.484 40.723c2.1289 1.7109 4.7852 2.6328 7.5156 2.6133h41.184c6.5391 0.023438 11.859-5.2578 11.887-11.793v-160.55c0.011719-3.1562-1.2344-6.1875-3.4688-8.418-2.2305-2.2344-5.2617-3.4805-8.418-3.4688h-41.184c-2.7422 0.003906-5.3984 0.96094-7.5156 2.7031l-49.578 40.746h-37.113v-33.391c0.027344-6.5391-5.2539-11.859-11.793-11.887h-55.82l-30.711-53.23c-2.1172-3.6914-6.0547-5.9609-10.312-5.9414zm11.699 82.855h207.93v140.62l-207.93-0.003906zm330.03 1.8281h25.16v136.87l-25.066-0.003906-45.273-37.047v-62.668zm-291.13 27.449 0.003907-0.007812c-6.0586 0.60937-10.668 5.707-10.66 11.797v58.387c-0.011718 3.1562 1.2344 6.1875 3.4688 8.418 2.2305 2.2305 5.2617 3.4805 8.418 3.4688h58.387c3.1562 0.011719 6.1875-1.2383 8.418-3.4688s3.4805-5.2617 3.4688-8.418v-58.387c-0.027344-6.5391-5.3477-11.82-11.887-11.797h-58.387c-0.41016-0.019532-0.82031-0.019532-1.2266 0zm101.21 0 0.003906-0.007812c-6.4297 0.47656-11.305 6-10.973 12.441 0.33594 6.4375 5.7539 11.43 12.195 11.238h26.293c3.1875 0.070313 6.2656-1.1445 8.543-3.3711 2.2773-2.2305 3.5625-5.2812 3.5625-8.4688 0-3.1836-1.2852-6.2383-3.5625-8.4648-2.2773-2.2266-5.3555-3.4453-8.543-3.375h-26.293c-0.40625-0.019532-0.81641-0.019532-1.2227 0zm91.5 16h29.551v50.062l-29.547-0.003906zm-179.69 7.6719h34.801v34.711h-34.801zm88.195 10.059c-6.4297 0.47656-11.305 6-10.973 12.441 0.33594 6.4375 5.7539 11.43 12.195 11.238h26.293c3.1875 0.070313 6.2656-1.1445 8.543-3.3711 2.2773-2.2305 3.5625-5.2812 3.5625-8.4688 0-3.1836-1.2852-6.2383-3.5625-8.4648-2.2773-2.2266-5.3555-3.4453-8.543-3.375h-26.293c-0.40625-0.019531-0.81641-0.019531-1.2227 0z"/>
</svg>
