<?xml version="1.0" encoding="UTF-8"?>
<svg width="55px" height="60px" version="1.1" viewBox="0 0 752 752" xmlns="http://www.w3.org/2000/svg">
 <path d="m376 257.61c-23.551 0-46.133 9.3555-62.789 26.008-16.652 16.652-26.008 39.238-26.008 62.789 0 23.551 9.3555 46.137 26.008 62.789 16.656 16.652 39.238 26.008 62.789 26.008s46.137-9.3555 62.789-26.008c16.652-16.652 26.008-39.238 26.008-62.789-0.027344-23.543-9.3906-46.113-26.035-62.758-16.648-16.648-39.219-26.012-62.762-26.039zm0 162.79c-19.625 0-38.445-7.793-52.324-21.672-13.875-13.879-21.672-32.699-21.672-52.324s7.7969-38.445 21.672-52.324c13.879-13.875 32.699-21.672 52.324-21.672s38.449 7.7969 52.324 21.672c13.879 13.879 21.676 32.699 21.676 52.324-0.023438 19.617-7.8281 38.426-21.699 52.301-13.871 13.871-32.68 21.676-52.301 21.695zm-44.398-199.79c0-4.0898 3.3164-7.4023 7.4023-7.4023h73.996c4.0859 0 7.3984 3.3125 7.3984 7.4023 0 4.0859-3.3125 7.3984-7.3984 7.3984h-73.996c-4.0859 0-7.4023-3.3125-7.4023-7.3984zm207.19 161.95v-124.96c-0.007813-7.8477-3.1289-15.371-8.6758-20.918-5.5508-5.5508-13.074-8.6719-20.922-8.6797h-53.863l-11.426-34.281c-0.98047-2.9492-2.8633-5.5117-5.3867-7.3281-2.5195-1.8164-5.5469-2.793-8.6523-2.7891h-107.73c-3.1055-0.003906-6.1367 0.97266-8.6562 2.7891-2.5195 1.8164-4.4023 4.3789-5.3828 7.3281l-11.426 34.281h-53.863c-7.8477 0.007813-15.371 3.1289-20.922 8.6797-5.5469 5.5469-8.6719 13.07-8.6797 20.918v124.95c-28.578 16.75-44.398 37.926-44.398 60.039 0 50.238 78.957 90.32 183.66 95.59l-24.973 16.648v0.003906c-1.6523 1.0781-2.8047 2.7734-3.1992 4.7109-0.39453 1.9336-0.003906 3.9453 1.0938 5.5859 1.0938 1.6445 2.8008 2.7812 4.7383 3.1602s3.9453-0.035156 5.5781-1.1445l44.398-29.598c2.0586-1.375 3.293-3.6836 3.293-6.1562 0-2.4766-1.2344-4.7852-3.293-6.1602l-44.398-29.598c-3.3984-2.2188-7.9531-1.2891-10.203 2.0898-2.2539 3.3789-1.3633 7.9414 1.9922 10.223l22.902 15.266c-92.703-5.4883-166.79-40.164-166.79-80.621 0-14.832 10.469-29.688 29.598-42.633v35.234c0.007813 7.8477 3.1328 15.371 8.6797 20.918 5.5508 5.5508 13.074 8.6719 20.922 8.6797h266.39c7.8477-0.007813 15.371-3.1289 20.922-8.6797 5.5469-5.5469 8.668-13.07 8.6758-20.918v-35.23c19.129 12.945 29.602 27.801 29.602 42.629 0 34.758-55.188 66.625-134.2 77.5v0.003906c-3.8555 0.52344-6.6445 3.9492-6.3828 7.8281 0.26562 3.8828 3.4883 6.8984 7.3789 6.9023 0.33984 0 0.68359-0.023437 1.0195-0.070312 87.918-12.098 146.98-49.137 146.98-92.164 0-22.113-15.816-43.281-44.398-60.035zm-14.797 52.637c-0.003906 3.9219-1.5664 7.6875-4.3398 10.461-2.7734 2.7734-6.5352 4.3359-10.461 4.3398h-266.39c-3.9258-0.003906-7.6875-1.5664-10.461-4.3398-2.7773-2.7734-4.3359-6.5391-4.3398-10.461v-177.59c0.003907-3.9219 1.5625-7.6836 4.3398-10.461 2.7734-2.7734 6.5352-4.332 10.461-4.3359h53.863c3.1055 0 6.1328-0.97656 8.6562-2.793 2.5195-1.8125 4.4023-4.3789 5.3828-7.3242l11.426-34.281h107.73l11.426 34.281h-0.003907c0.98047 2.9453 2.8672 5.5117 5.3867 7.3242 2.5195 1.8164 5.5508 2.793 8.6562 2.793h53.863c3.9258 0.003906 7.6875 1.5625 10.461 4.3359 2.7734 2.7773 4.3359 6.5391 4.3398 10.461zm-258.99-177.59c-5.8906 0-11.535 2.3398-15.699 6.5039-4.1641 4.1602-6.5 9.8086-6.5 15.695 0 5.8867 2.3359 11.535 6.5 15.699 4.1641 4.1602 9.8086 6.5 15.699 6.5 5.8867 0 11.531-2.3398 15.695-6.5 4.1641-4.1641 6.5-9.8125 6.5-15.699-0.003906-5.8867-2.3438-11.527-6.5078-15.688-4.1602-4.1641-9.8047-6.5039-15.688-6.5117zm0 29.598c-2.9961 0-5.6914-1.8008-6.8398-4.5664-1.1445-2.7656-0.51172-5.9492 1.6055-8.0625 2.1172-2.1172 5.3008-2.75 8.0625-1.6055 2.7656 1.1445 4.5703 3.8438 4.5703 6.8359-0.007812 4.0859-3.3164 7.3945-7.3984 7.3984zm111 0h-0.003906c-15.699 0-30.758 6.2383-41.859 17.34-11.102 11.102-17.336 26.16-17.336 41.859 0 15.699 6.2344 30.758 17.336 41.859 11.102 11.102 26.16 17.34 41.859 17.34 15.703 0 30.758-6.2383 41.859-17.34 11.102-11.102 17.34-26.16 17.34-41.859-0.019531-15.695-6.2617-30.742-17.359-41.84s-26.145-17.34-41.84-17.359zm0 103.6h-0.003906c-11.773 0-23.066-4.6758-31.395-13.004-8.3242-8.3281-13.004-19.617-13.004-31.395 0-11.773 4.6797-23.066 13.004-31.395 8.3281-8.3242 19.621-13.004 31.395-13.004 11.777 0 23.07 4.6797 31.395 13.004 8.3281 8.3281 13.004 19.621 13.004 31.395-0.011719 11.77-4.6953 23.059-13.016 31.379-8.3242 8.3242-19.609 13.008-31.383 13.02z"/>
</svg>
